# xmcd
#
# Track frame offsets:
#	150
#	11436
#	29021
#	45807
#	64315
#	76706
#
# Disc length: 1240 seconds
#
# Revision: 2
# Processed by: cddbd v1.5.2PL0 Copyright (c) Steve Scherf et al.
# Submitted via: EZCDAudioConverter 4.0.3.1
#
DISCID=3b04d606
DTITLE=Rhonda Vincent - Only Me
DYEAR=2014
DGENRE=Blue Grass
TTITLE0=Busy City
TTITLE1=I'd Rather Hear I Don't Love You (Than Nothing at All)
TTITLE2=feat. Willie Nelson Only Me
TTITLE3=I Need Somebody Bad Tonight
TTITLE4=feat. Daryle Singletary We Must Have Been Out of Our Minds
TTITLE5=It's Never Too Late
EXTD=
EXTT0=
EXTT1=
EXTT2=
EXTT3=
EXTT4=
EXTT5=
PLAYORDER=
